<?xml version="1.0" encoding="utf-8"?>
<!-- Generator: Adobe Illustrator 23.0.6, SVG Export Plug-In . SVG Version: 6.00 Build 0)  -->
<svg version="1.1" id="Layer_1" xmlns="http://www.w3.org/2000/svg" xmlns:xlink="http://www.w3.org/1999/xlink" x="0px" y="0px"
	 viewBox="0 0 266 130" style="enable-background:new 0 0 266 130;" xml:space="preserve">
<style type="text/css">
	.st0{fill:#94C437;}
</style>
<g>
	<g>
		<g>
			<path class="st0" d="M104.7,102.1l4.6,2.2c-2.5,5.2-5.3,10.1-8.3,14.7c-1.6-1.3-2.9-2.3-4.1-2.8
				C99.8,112.2,102.4,107.5,104.7,102.1z M98.2,92.3h13.4V72.7h5.2v7.4h12.4v4.6h-12.4v7.6h15.4v4.7H98.2V92.3z M100.3,65.8H131
				c-1.3-2.3-2.7-4.6-4.3-6.8l4.5-2.5c1.9,2.7,3.6,5.2,4.9,7.2l-3.8,2h29.4v10.4h-5.3v-5.5h-50.8v6.6h-5.3V65.8z M113.8,98.7h5.2
				v17.6c0,3-0.6,5.1-1.7,6.3c-1,1.2-3,1.8-6,1.9c-2.3,0.1-4.3,0.1-6,0c-0.3-1.7-0.7-3.4-1.1-5.1c1.6,0.1,3.4,0.2,5.5,0.2
				c2.7,0,4-1,4-3.1L113.8,98.7L113.8,98.7z M122.4,104.2l4-2.4c2,2.6,4.4,5.8,7,9.6l-4.2,2.8C126.6,110.3,124.4,107,122.4,104.2z
				 M131.4,83.7V79h28.7v4.4c-1.4,9.8-4.9,18.3-10.4,25.5c4.1,4.4,9.3,8,15.5,10.7c-1.3,1.3-2.6,3-4,4.9c-5.9-3.2-10.9-7-15-11.5
				c-4.7,4.9-10.5,9.2-17.4,12.7c-1.4-1.8-2.6-3.4-3.8-4.6c7.2-3.1,13.1-7.2,17.8-12.2c-5-7-8-15.4-9-25.2H131.4z M154.9,83.7h-16.1
				c1,8.2,3.5,15.2,7.5,21C150.6,98.8,153.5,91.8,154.9,83.7z"/>
		</g>
	</g>
	<g>
		<path class="st0" d="M78.9,4.3v6.9l-18.5,0.1v14.3h18.5l-1.2,4.1H58.7c-1,0-2-0.4-2.9-1.1c-1.1-0.8-1.6-1.9-1.6-3.2V7.1h19V4.9
			L78.9,4.3z"/>
		<path class="st0" d="M108.1,29.7h-5.8V11.8H87.1v17.6L81,30V10.4c-0.9-0.1-1.7-0.2-2.6-0.3c-0.9-0.3-1.3-1.1-1.3-2.1v-1h30.8
			L108.1,29.7z"/>
		<path class="st0" d="M137.1,25.5c0,1.3-0.5,2.4-1.6,3.2c-0.9,0.7-1.9,1.1-2.9,1.1h-16.9c-1,0-2-0.4-2.9-1.1
			c-1.1-0.8-1.6-1.9-1.6-3.2l0.1-18.6h10.1v-2l5.6-0.6l-0.1,2.6h10.1L137.1,25.5z M130.9,25.6V11h-13.5v14.6H130.9z"/>
		<path class="st0" d="M167.6,29.3c-0.9,0.1-1.9,0.2-2.9,0.2c-4,0-7.4-0.9-10.2-2.5c-3.5-2.2-5.2-5.4-5.1-9.6h-2.7v12.3h-6.2V7.1
			h6.2v5.6h14.6V7.1h6.1l0.1,6.1c0,1.3-0.5,2.3-1.5,3.2c-0.9,0.7-1.9,1.1-2.9,1.1h-7.4c0,2.7,1.2,4.8,3.7,6.3c2,1.2,4.2,1.8,6.7,1.8
			c0.4,0,0.9,0,1.2-0.1L167.6,29.3z"/>
		<path class="st0" d="M176.6,7.1v22.6h-6.2V7.1H176.6z"/>
		<path class="st0" d="M178.9,29.7c0.2,0,0.6,0.1,1.2,0.3c0.1,0,0.4,0,1-0.1v-23h5.5v21c5.5-6.4,10.3-13.4,14.5-21h10.7v1
			c0,1.1-0.4,1.8-1.3,2.1c-0.9,0.1-1.7,0.2-2.6,0.3V30l-6.2-0.6V15.5c-4.3,6.9-8,11.7-11,14.4c-2.7,2.4-5.5,3.6-8.5,3.6
			c-1.1,0-2.3-0.1-3.6-0.4L178.9,29.7z M190.8,5.4h5.6V9h-5.6V5.4z"/>
	</g>
</g>
</svg>
