<?xml version="1.0" encoding="utf-8"?>
<!-- Generator: Adobe Illustrator 23.0.6, SVG Export Plug-In . SVG Version: 6.00 Build 0)  -->
<svg version="1.1" id="Layer_1" xmlns="http://www.w3.org/2000/svg" xmlns:xlink="http://www.w3.org/1999/xlink" x="0px" y="0px"
	 viewBox="0 0 266 130" style="enable-background:new 0 0 266 130;" xml:space="preserve">
<style type="text/css">
	.st0{fill:#94C437;}
</style>
<g>
	<g>
		<g>
			<path class="st0" d="M33.6,23c-1.1,0-2.1-0.4-3-1.1c-1.1-0.9-1.6-1.9-1.6-3.3V6h6.3v12.1h15V6h6.3v23.3h-6.3V23H33.6z"/>
			<path class="st0" d="M57.5,29.2c0.2,0,0.6,0.1,1.2,0.4c0.1,0,0.5,0,1-0.1V5.8h5.7v21.6C71,20.8,76,13.6,80.3,5.8h11.1v1.1
				c0,1.1-0.4,1.9-1.3,2.2c-0.9,0.1-1.8,0.2-2.7,0.4v20.2L81,29V14.7c-4.4,7.1-8.2,12-11.3,14.8c-2.8,2.4-5.7,3.7-8.7,3.7
				c-1.1,0-2.3-0.1-3.7-0.4L57.5,29.2z"/>
			<path class="st0" d="M118.1,3.1v7.1l-19,0.1V25h19l-1.3,4.2H97.4c-1.1,0-2-0.4-3-1.1c-1.1-0.8-1.6-1.9-1.6-3.3V6h19.6V3.7
				L118.1,3.1z"/>
			<path class="st0" d="M147.5,3.1v7.1h-11.2v19h-6.4v-19H120L119.8,6h21.9V3.7L147.5,3.1z"/>
			<path class="st0" d="M176.1,24.9c0,1.4-0.5,2.4-1.6,3.3c-0.9,0.7-1.9,1.1-3,1.1h-17.4c-1.1,0-2-0.4-3-1.1
				c-1.1-0.8-1.6-1.9-1.6-3.3l0.1-19.1h10.4V3.7l5.8-0.6l-0.1,2.7H176L176.1,24.9z M169.7,25V10h-13.8v15H169.7z"/>
			<path class="st0" d="M207.4,3.1v7.1h-11.2v19h-6.4v-19H180L179.8,6h21.9V3.7L207.4,3.1z"/>
			<path class="st0" d="M237,29.2l-23.1-0.1c-1.1,0-2-0.4-3-1.1c-1.1-0.9-1.6-1.9-1.6-3.3l0.1-9.9h21.2c0-3.8-2.6-5.8-7.7-5.8
				c-2.2,0-5.5,0.4-10,1L211,5.8c4.3-1.2,8.3-1.8,11.8-1.8c4.5,0,7.9,0.9,10.4,2.8s3.8,4.6,3.8,8V29.2z M230.6,24.3v-5.2h-14.9v5.2
				H230.6z"/>
		</g>
	</g>
	<g>
		<g>
			<path class="st0" d="M95.8,81.9l3.6-4c4.3,2.9,8.3,5.9,12,9c-1.7,1.9-3.1,3.4-4.1,4.4C103,87.6,99.2,84.5,95.8,81.9z M98,124.8
				c2.8-8.6,5.2-17.6,7.2-26.9c2,0.9,3.9,1.6,5.6,2.2c-2.2,8.6-4.4,17.5-6.7,26.6L98,124.8z M98.5,63.8l3.6-3.7
				c3.1,2.3,7.1,5.6,12,9.8c-1.6,1.5-3,2.9-4.2,4.1C105.1,69.5,101.3,66.1,98.5,63.8z M114,83h22.9v-4.7h-18.2v-4.4h18.2v-4.7h-20.6
				v-4.4h20.6v-6.3h5.4v6.3h21.7v4.4h-21.7v4.7h19.8v4.4h-19.8V83h23v4.4H114L114,83L114,83z M124.2,126.9h-5.3V91.6H160v27.3
				c0,4.9-2.5,7.4-7.4,7.4H141c-0.2-1.5-0.6-3.3-1-5.4c4.3,0.3,7.8,0.4,10.5,0.4c2.8,0,4.2-1.2,4.2-3.6v-3.5h-30.5V126.9z
				 M154.7,96.1h-30.5v4.8h30.5L154.7,96.1L154.7,96.1z M124.2,110h30.5v-4.8h-30.5V110z"/>
		</g>
	</g>
</g>
</svg>
