<?xml version="1.0" encoding="utf-8"?>
<!-- Generator: Adobe Illustrator 23.0.6, SVG Export Plug-In . SVG Version: 6.00 Build 0)  -->
<svg version="1.1" id="Layer_1" xmlns="http://www.w3.org/2000/svg" xmlns:xlink="http://www.w3.org/1999/xlink" x="0px" y="0px"
	 viewBox="0 0 266 130" style="enable-background:new 0 0 266 130;" xml:space="preserve">
<style type="text/css">
	.st0{fill:#94C437;}
</style>
<g>
	<g>
		<path class="st0" d="M39.1,6.4v20.6H6.2V9.4C5.4,9.3,4.6,9.1,3.8,9C3,8.7,2.6,8.1,2.6,7.1V6.2l9.2-0.1v16.4h7.8V8.4l5.6-1v15.2
			h8.3V6.4H39.1z"/>
		<path class="st0" d="M66.7,26.9l-20.5-0.1c-0.9,0-1.8-0.3-2.6-1c-1-0.8-1.4-1.7-1.4-2.9l0-8.8H61c0-3.4-2.3-5.1-6.8-5.1
			c-2,0-4.9,0.3-8.9,0.9l-1.7-3.8c3.8-1.1,7.3-1.6,10.5-1.6c4,0,7,0.8,9.3,2.5c2.2,1.7,3.3,4,3.3,7.1V26.9z M61,22.6v-4.6H47.8v4.6
			H61z"/>
		<path class="st0" d="M95.3,26.9H90v-8.5c-1.6,0.4-3.5,0.6-5.7,0.6c-2.3,0-5-0.2-8.2-0.6v8.3l-5.6,0.5V9.4
			c-0.8-0.1-1.6-0.2-2.4-0.3c-0.8-0.3-1.2-1-1.2-2V6.2h9.2l-0.1,7.6c4.1,0.5,8.7,0.8,13.9,0.9V6.2H95L95.3,26.9z"/>
		<path class="st0" d="M124.2,6.3l-0.1,12.5c0,3.4-1.6,6-4.6,7.6c-2.5,1.3-5.9,2-10.1,2c-2.3,0-4.6-0.2-7-0.6l0.3-3.6
			c1.6,0.1,3.1,0.2,4.5,0.2c7.5,0,11.2-1.8,11.2-5.6L102,18.6c-0.9,0-1.8-0.3-2.6-1c-1-0.7-1.4-1.7-1.4-2.9L98,6.1l5.6-0.1l0.1,8.3
			l14.9-0.1l0.1-8L124.2,6.3z"/>
		<path class="st0" d="M151.8,14.3c0,1-0.3,1.9-1,2.6c0.1,0.6,0.1,1.3,0.1,1.9c0,6.8-3.8,10.2-11.3,10.2c-3.3,0-7.4-0.7-12.3-2V6.4
			h24.5L151.8,14.3z M146.2,13.9v-3.8h-13.3v3.8H146.2z M144.8,18.2h-12v6.1c2,0.2,3.7,0.4,5.1,0.4c4.7,0,7-1.6,7-4.9
			C145,19.3,144.9,18.8,144.8,18.2z"/>
		<path class="st0" d="M179.3,26.9l-20.5-0.1c-0.9,0-1.8-0.3-2.6-1c-1-0.8-1.4-1.7-1.4-2.9l0.1-8.8h18.8c0-3.4-2.3-5.1-6.9-5.1
			c-2,0-4.9,0.3-8.9,0.9l-1.6-3.8c3.9-1.1,7.3-1.6,10.5-1.6c3.9,0,7,0.8,9.3,2.5s3.3,4,3.3,7.1V26.9z M173.7,22.6v-4.6h-13.2v4.6
			H173.7z"/>
		<path class="st0" d="M207.9,26.9h-5.3v-8.5c-1.6,0.4-3.5,0.6-5.7,0.6c-2.3,0-5-0.2-8.2-0.6v8.3l-5.6,0.5V9.4
			c-0.8-0.1-1.6-0.2-2.4-0.3c-0.8-0.3-1.2-1-1.2-2V6.2h9.2l-0.1,7.6c4.1,0.5,8.7,0.8,13.9,0.9V6.2h5.1L207.9,26.9z"/>
		<path class="st0" d="M236,26.9h-5.3v-8.5c-1.6,0.4-3.5,0.6-5.7,0.6c-2.3,0-5-0.2-8.2-0.6v8.3l-5.6,0.5V9.4
			c-0.8-0.1-1.6-0.2-2.4-0.3c-0.8-0.3-1.2-1-1.2-2V6.2h9.2l-0.1,7.6c4.1,0.5,8.7,0.8,13.9,0.9V6.2h5.1L236,26.9z"/>
		<path class="st0" d="M239,23c1.6,0.2,2.9,0.3,3.8,0.3c4.5,0,6.8-1.7,6.8-5.1h-6.8c-1,0-1.9-0.3-2.7-1c-1-0.8-1.4-1.7-1.4-2.9
			l0.1-7.9h24.5v20.6h-5.6v-8.8h-2.4c0.1,5.9-3.6,8.9-11.2,8.9c-1.6,0-3.4-0.2-5.4-0.5L239,23z M257.7,13.9v-3.8h-13.3v3.8H257.7z"
			/>
	</g>
	<g>
		<g>
			<path class="st0" d="M97.9,93.4c3.8-6,7-12.2,9.3-18.8l4.9,1.1c-0.4,1.1-0.8,2.1-1.3,3.1h22.6c-0.1,12.8-0.3,23.6-0.6,32.3
				c-0.1,5.2-1,8.7-2.6,10.6c-1.5,1.7-4.3,2.5-8.5,2.5c-2.6,0-5.5,0-8.7-0.1c-0.2-1.8-0.5-3.6-1-5.4c3.7,0.4,6.6,0.6,8.9,0.6
				c2.7,0,4.4-0.5,5.2-1.5c0.9-1.1,1.5-3.4,1.7-7c0.3-6.8,0.5-15.9,0.6-27.3h-19.5c-1.1,2.3-2.2,4.6-3.4,6.8h16.9v21.4h-13.2v4h-4.6
				V92.1c-0.8,1.4-1.7,2.8-2.5,4.2C100.1,94.9,98.7,94,97.9,93.4z M124.4,57.6h4.9V64h8.9v4.7h-8.9v6.1h-4.9v-6.1h-10.3v5h-4.9v-5
				H98.9V64h10.3v-6.3h4.9V64h10.3L124.4,57.6L124.4,57.6z M117.8,107.4V94.9h-8.6v12.4H117.8z M144.4,56.6l5.4,0.9
				c-0.9,4.3-2,8.3-3.3,12.1H167v4.7h-4.7c-0.6,13.9-3.4,24.8-8.4,32.7c3.7,5,8.4,8.9,14.1,11.9c-1.4,2-2.6,3.9-3.6,5.5
				c-5.5-3.6-10.1-7.8-13.8-12.7c-4,4.8-9.2,9.3-15.6,13.6c-1.8-2.3-3-3.8-3.7-4.3c6.7-4.3,12-8.9,16.1-14.1
				c-3.9-6.5-6.4-14.1-7.6-22.5c-0.8,1.4-1.6,2.7-2.5,4c-1.4-2.4-2.5-4.1-3.3-5.2C138.5,76.7,142,67.8,144.4,56.6z M143.6,76.9
				c0.9,9.9,3.3,18.3,7.2,25.2c3.7-6.8,5.8-16,6.4-27.7h-12.5C144.4,75.3,144,76.1,143.6,76.9z"/>
		</g>
	</g>
</g>
</svg>
