<?xml version="1.0" encoding="utf-8"?>
<!-- Generator: Adobe Illustrator 23.0.6, SVG Export Plug-In . SVG Version: 6.00 Build 0)  -->
<svg version="1.1" id="Layer_1" xmlns="http://www.w3.org/2000/svg" xmlns:xlink="http://www.w3.org/1999/xlink" x="0px" y="0px"
	 viewBox="0 0 266 130" style="enable-background:new 0 0 266 130;" xml:space="preserve">
<style type="text/css">
	.st0{fill:#94C437;}
	.st1{fill:#FF0000;}
</style>
<g>
	<path class="st0" d="M99.9,104.9c5.3-7,9.5-14.8,12.6-23.4h-12.2v-4.7h13.3v-11c-3.6,0.6-7.3,1.1-11,1.5c-0.4-1.5-0.9-3.1-1.5-4.8
		c9.7-1.1,19-2.6,28-4.7l1.6,4.9c-3.8,0.8-7.8,1.5-11.8,2.2v11.9h13v4.7h-13v9l2.5-2.5c3.7,3.2,7.3,6.5,10.8,10l-4,4
		c-2.8-3.2-5.9-6.5-9.3-9.8v32.3h-5.3V91.2c-2.7,6.9-6.4,13.4-11.1,19.7C101.8,109.1,100.9,107.1,99.9,104.9z M135.4,64.2h30.8v58.1
		h-5.6v-6.8H141v6.8h-5.6L135.4,64.2L135.4,64.2z M160.6,69.4H141v41.2h19.6V69.4z"/>
</g>
<g>
	<g>
		<g>
			<path class="st1" d="M217.3,26.6c1.7,0.2,3.1,0.3,4.1,0.3c4.9,0,7.3-1.8,7.3-5.5h-7.3c-1.1,0-2-0.4-2.9-1.1
				c-1.1-0.8-1.6-1.9-1.5-3.1V8.5h26.7v22.4h-6.2v-9.6h-2.6c0.1,6.4-3.9,9.6-12.1,9.6c-1.8,0-3.7-0.2-5.8-0.5L217.3,26.6z
				 M237.4,16.7v-4.1h-14.3v4.1H237.4z"/>
		</g>
	</g>
	<g>
		<polygon class="st1" points="28.5,31.2 22.4,30.9 22.4,8.2 41.3,8.2 41.3,6 46.8,5.4 46.8,12.3 28.5,12.3 		"/>
	</g>
	<g>
		<path class="st1" d="M75.2,30.7L53,30.6c-1,0-2-0.4-2.9-1.1c-1-0.8-1.6-1.9-1.6-3.1l0.1-9.6H69c0-3.7-2.5-5.5-7.5-5.5
			c-2.1,0-5.3,0.3-9.6,1l-1.8-4.1c4.2-1.2,8-1.7,11.4-1.7c4.3,0,7.7,0.9,10.1,2.7s3.6,4.4,3.6,7.7V30.7L75.2,30.7z M69.1,26v-5H54.7
			v5H69.1z"/>
	</g>
	<g>
		<path class="st1" d="M105.5,17c0,1.3-0.5,2.3-1.5,3.1c-0.9,0.7-1.9,1.1-2.9,1.1H85v9.5h-6.1V8.4h26.6V17z M99.4,16.5v-4.1H85v4.1
			H99.4z"/>
	</g>
	<g>
		<path class="st1" d="M143.3,8.4l-0.1,22.4h-6.1V13.2l-12,19l-11.5-18.7l-0.1,16.9l-6.1,0.6V11.6c-0.9-0.1-1.7-0.2-2.6-0.3
			c-0.9-0.3-1.3-1.1-1.3-2.1v-1L117,8.1l8.1,13.4l8.7-13.1H143.3z"/>
	</g>
	<g>
		<path class="st1" d="M172.4,26.6c0,1.3-0.5,2.4-1.6,3.1c-0.9,0.7-1.9,1.1-2.9,1.1h-16.8c-1,0-2-0.4-2.9-1.1
			c-1.1-0.8-1.6-1.8-1.6-3.1l0.1-18.4h10v-2l5.6-0.6l-0.1,2.6h10L172.4,26.6z M166.2,26.7V12.2h-13.3v14.4
			C152.9,26.7,166.2,26.7,166.2,26.7z"/>
	</g>
	<g>
		<path class="st1" d="M203.3,30.7h-5.8v-9.3c-1.7,0.5-3.8,0.7-6.2,0.7c-2.5,0-5.4-0.2-8.9-0.7v9.1l-6.1,0.6V11.6
			c-0.9-0.1-1.7-0.2-2.6-0.3c-0.9-0.3-1.3-1.1-1.3-2.1v-1h10l-0.1,8.2c4.4,0.5,9.4,0.9,15.1,1V8.1h5.5L203.3,30.7z"/>
	</g>
	<g>
		<rect x="206.2" y="8.4" class="st1" width="6.1" height="22.4"/>
	</g>
</g>
</svg>
