<?xml version="1.0" encoding="utf-8"?>
<!-- Generator: Adobe Illustrator 23.0.6, SVG Export Plug-In . SVG Version: 6.00 Build 0)  -->
<svg version="1.1" id="Layer_1" xmlns="http://www.w3.org/2000/svg" xmlns:xlink="http://www.w3.org/1999/xlink" x="0px" y="0px"
	 viewBox="0 0 136.7 23" style="enable-background:new 0 0 136.7 23;" xml:space="preserve">
<style type="text/css">
	.st0{fill:#FFFFFF;}
</style>
<g>
	<path class="st0" d="M3.87,15.85c-0.91,0-1.75-0.31-2.53-0.92c-0.91-0.71-1.35-1.62-1.31-2.72V1.65h5.3v10.16h12.55V1.65h5.3V21.1
		h-5.3v-5.25H3.87z"/>
	<path class="st0" d="M50.94,21.1l-19.3-0.1c-0.88,0-1.7-0.31-2.48-0.92c-0.91-0.71-1.36-1.62-1.36-2.72l0.05-8.32h17.75
		c0-3.21-2.16-4.81-6.47-4.81c-1.85,0-4.64,0.29-8.36,0.88l-1.56-3.6C32.84,0.5,36.13,0,39.08,0c3.73,0,6.64,0.79,8.73,2.36
		c2.09,1.57,3.14,3.8,3.14,6.69V21.1z M45.64,16.97v-4.38h-12.5v4.38H45.64z"/>
	<path class="st0" d="M79.07,9.19c0.03,0.94-0.29,1.75-0.97,2.43c0.06,0.62,0.1,1.2,0.1,1.75c0,6.42-3.57,9.63-10.7,9.63
		c-3.14,0-7-0.63-11.57-1.9V1.7h23.1L79.07,9.19z M73.77,8.8V5.25H61.22V8.8H73.77z M72.5,12.84H61.22v5.79
		c1.91,0.23,3.52,0.34,4.81,0.34c4.41,0,6.61-1.54,6.61-4.62C72.65,13.89,72.6,13.39,72.5,12.84z"/>
	<path class="st0" d="M107.04,21.1l-19.3-0.1c-0.88,0-1.7-0.31-2.48-0.92c-0.91-0.71-1.36-1.62-1.36-2.72l0.05-8.32h17.75
		c0-3.21-2.16-4.81-6.47-4.81c-1.85,0-4.64,0.29-8.36,0.88l-1.56-3.6C88.94,0.5,92.23,0,95.18,0c3.73,0,6.64,0.79,8.73,2.36
		c2.09,1.57,3.14,3.8,3.14,6.69V21.1z M101.74,16.97v-4.38h-12.5v4.38H101.74z"/>
	<path class="st0" d="M136.67,21.1h-5.01v-8.07c-1.49,0.39-3.27,0.58-5.35,0.58c-2.14,0-4.72-0.19-7.73-0.58v7.88l-5.3,0.49V4.52
		c-0.75-0.1-1.49-0.19-2.24-0.29c-0.75-0.29-1.12-0.91-1.12-1.85V1.51h8.7l-0.05,7.15c3.83,0.45,8.19,0.75,13.08,0.88V1.51h4.77
		L136.67,21.1z"/>
</g>
</svg>
