<?xml version="1.0" encoding="utf-8"?>
<!-- Generator: Adobe Illustrator 23.0.6, SVG Export Plug-In . SVG Version: 6.00 Build 0)  -->
<svg version="1.1" id="Layer_1" xmlns="http://www.w3.org/2000/svg" xmlns:xlink="http://www.w3.org/1999/xlink" x="0px" y="0px"
	 viewBox="0 0 131.3 23" style="enable-background:new 0 0 131.3 23;" xml:space="preserve">
<style type="text/css">
	.st0{fill:#FFFFFF;}
</style>
<g>
	<g>
		<path class="st0" d="M3.77,16.06c-0.87,0-1.7-0.3-2.45-0.9c-0.89-0.69-1.3-1.57-1.27-2.63V2.31h5.14v9.85h12.16V2.31h5.14v18.85
			h-5.14v-5.09H3.77V16.06z"/>
		<path class="st0" d="M49.38,21.15l-18.71-0.09c-0.84,0-1.65-0.3-2.4-0.9c-0.89-0.69-1.32-1.57-1.32-2.63l0.05-8.06h17.2
			c0-3.11-2.09-4.67-6.27-4.67c-1.79,0-4.5,0.28-8.11,0.84l-1.51-3.49c3.52-0.98,6.7-1.46,9.56-1.46c3.61,0,6.43,0.76,8.45,2.29
			c2.02,1.53,3.04,3.68,3.04,6.48C49.38,9.46,49.38,21.15,49.38,21.15z M44.25,17.15v-4.24H32.14v4.24H44.25z"/>
		<path class="st0" d="M62.74,2.17v-1.7L67.41,0l-0.05,2.17l9.24,0.19l0.05,7.25c0.03,0.92-0.28,1.7-0.95,2.36
			c0.06,0.6,0.09,1.16,0.09,1.7c0,6.22-3.46,9.33-10.37,9.33c-3.05,0-6.79-0.61-11.21-1.84v-2.08c2.23,0.15,4.16,0.23,5.8,0.23
			c3.61,0,6.25-0.39,7.89-1.15c1.65-0.77,2.47-2.03,2.47-3.79c0-0.38-0.03-0.78-0.09-1.22h-9.96V9.24H71.5V5.79H54.21V2.35
			L62.74,2.17z"/>
		<path class="st0" d="M102.25,9.56c0,1.1-0.44,1.99-1.32,2.69c-0.75,0.57-1.56,0.84-2.4,0.84H86.47v4.62h15.41l-1.04,3.44H85.06
			c-0.84,0-1.65-0.3-2.4-0.9c-0.87-0.66-1.32-1.54-1.32-2.63V2.35h15.88V0.47L101.89,0v5.75L86.47,5.79v3.39h15.79v0.39H102.25z"/>
		<path class="st0" d="M131.25,21.15h-4.85v-7.82c-1.44,0.38-3.17,0.57-5.18,0.57c-2.08,0-4.57-0.19-7.49-0.57v7.63l-5.14,0.47V5.09
			c-0.72-0.09-1.44-0.19-2.17-0.28c-0.73-0.28-1.09-0.87-1.09-1.79V2.17h8.43l-0.05,6.93c3.7,0.44,7.93,0.72,12.67,0.84V2.17h4.62
			L131.25,21.15z"/>
	</g>
</g>
</svg>
