<?xml version="1.0" encoding="utf-8"?>
<!-- Generator: Adobe Illustrator 23.0.6, SVG Export Plug-In . SVG Version: 6.00 Build 0)  -->
<svg version="1.1" id="Layer_1" xmlns="http://www.w3.org/2000/svg" xmlns:xlink="http://www.w3.org/1999/xlink" x="0px" y="0px"
	 viewBox="0 0 134.9 23" style="enable-background:new 0 0 134.9 23;" xml:space="preserve">
<style type="text/css">
	.st0{fill:#FFFFFF;}
</style>
<g>
	<path class="st0" d="M21.47,23l-5.57-0.05c0-4.61-1.63-8.69-4.9-12.24c-3.62,3.52-5.43,7.6-5.43,12.24L0.01,23
		c0-6.21,2.27-11.43,6.82-15.65C4.68,6.19,2.5,5.7,0.29,5.86L0.01,2.69C0.87,2.53,1.77,2.45,2.7,2.45c2.69,0,5.35,0.69,7.97,2.06
		C12.84,3.3,15,2.59,17.15,2.4V0.48L21.9,0l-0.05,5.86c-2.37,0.1-4.64,0.72-6.82,1.87C19.32,11.83,21.47,16.92,21.47,23z"/>
	<path class="st0" d="M31.86,2.88v19.16h-5.23V2.88H31.86z"/>
	<path class="st0" d="M69.58,2.88v19.16H38.9V5.67c-0.74-0.1-1.47-0.19-2.21-0.29c-0.74-0.29-1.1-0.9-1.1-1.82V2.69l8.59-0.05v15.32
		h7.25V4.75l5.19-0.96v14.12h7.73V2.88H69.58z"/>
	<path class="st0" d="M97.21,22.04l-19.06-0.1c-0.86,0-1.68-0.3-2.45-0.91c-0.9-0.7-1.34-1.6-1.34-2.69l0.05-8.21h17.53
		c0-3.17-2.13-4.75-6.39-4.75c-1.82,0-4.58,0.29-8.26,0.86l-1.54-3.55c3.58-0.99,6.83-1.49,9.75-1.49c3.68,0,6.55,0.78,8.62,2.33
		c2.06,1.55,3.1,3.75,3.1,6.6V22.04z M91.97,17.96v-4.32H79.63v4.32H91.97z"/>
	<path class="st0" d="M125.07,21.7c-0.77,0.13-1.6,0.19-2.5,0.19c-3.39,0-6.27-0.72-8.64-2.16c-2.95-1.86-4.39-4.58-4.32-8.16h-2.26
		v10.47h-5.23V2.83h5.23v4.75h12.39V2.83h5.19l0.05,5.14c0.03,1.09-0.4,1.99-1.3,2.69c-0.77,0.61-1.6,0.91-2.5,0.91h-6.29
		c0,2.3,1.06,4.08,3.17,5.33c1.66,1.03,3.57,1.54,5.71,1.54c0.38,0,0.72-0.02,1.01-0.05L125.07,21.7z"/>
	<path class="st0" d="M134.89,2.88v19.16h-5.23V2.88H134.89z"/>
</g>
</svg>
