<?xml version="1.0" encoding="utf-8"?>
<!-- Generator: Adobe Illustrator 23.0.6, SVG Export Plug-In . SVG Version: 6.00 Build 0)  -->
<svg version="1.1" id="Layer_1" xmlns="http://www.w3.org/2000/svg" xmlns:xlink="http://www.w3.org/1999/xlink" x="0px" y="0px"
	 viewBox="0 0 1368.3 593.2" style="enable-background:new 0 0 1368.3 593.2;" xml:space="preserve">
<style type="text/css">
	.st0{fill:#FF0000;}
	.st1{fill:#6C852A;}
	.st2{fill:#FFFFFF;}
	.st3{fill:#95C239;}
	.st4{opacity:0.82;fill:#FFFFFF;}
</style>
<g>
	<ellipse class="st0" cx="578" cy="460" rx="86.2" ry="86.3"/>
</g>
<path class="st1" d="M418.6,399.8c0,0,31.2,54.6,93.2,46c39.1-5.4,78.7-22.3,133.6-30.8c44.7-6.9,76.9,13.6,130.2-68.7l6.6,245.9
	H426.8L418.6,399.8z"/>
<path class="st1" d="M0.5,310.5c0-4.9,2-9.6,5.6-13L216.4,99.7l330.8,491.1l-543.9,2C2.3,575.2,0.5,310.5,0.5,310.5z"/>
<polygon class="st1" points="1097.7,170 1218.3,0 1368.3,128.1 1368.3,431 "/>
<polygon class="st1" points="617.4,590.9 983.4,17.9 1368.4,395.9 1368.4,593.2 "/>
<polygon class="st2" points="983.4,17.9 1093.3,125.8 1053.5,117.2 1029.3,187.4 987,140.3 930.9,196.6 932.1,129.2 882.7,175.5 "/>
<path class="st2" d="M1218.3,0c3.6,3,116.7,99.7,116.7,99.7l-64.4-13.8l5.3,59.1l-54.6-47.8l-44.6,64.7l-7.8-50
	c0.1-1.5-74.9,62.3-74.9,62.3L1218.3,0z"/>
<path class="st2" d="M318.9,251.7L268.3,213L225,251.7l-19.6-64.6L145.3,234l8.8-41.6l-82,43c4.4-3.9,144.3-135.7,144.3-135.7
	L318.9,251.7z"/>
<path class="st3" d="M0,496.8c0,0,71.3-27.7,157.1-25.7s136.9,23.7,207.3,19s235.9-34.3,304.3-36.1c154.2-4.1,245.1,26.9,308.4,24.3
	s114.4-29.6,201.2-34.2c86.8-4.6,190,31.9,190,31.9v117.2H0.5L0,496.8z"/>
<path class="st4" d="M658.7,186l145.1-4.7c0,0,30.7,24.3,30.1,23.6c-0.6-0.6-83.7,8.5-83.7,8.5l-56.2,18l-110.6-1.8L494,189.8
	l71.9-13.2L658.7,186z"/>
<path class="st4" d="M402.7,107.2l121.6-20.1l105.4,17.2l19.4,20.5l-134.1-5.2c0,0-72.2,21.2-72.7,20.6
	c-0.5-0.6-103.8-9.1-103.8-9.1l22.1-33L402.7,107.2z"/>
</svg>
