<?xml version="1.0" encoding="utf-8"?>
<!-- Generator: Adobe Illustrator 23.0.6, SVG Export Plug-In . SVG Version: 6.00 Build 0)  -->
<svg version="1.1" id="Layer_1" xmlns="http://www.w3.org/2000/svg" xmlns:xlink="http://www.w3.org/1999/xlink" x="0px" y="0px"
	 viewBox="0 0 139 24" style="enable-background:new 0 0 139 24;" xml:space="preserve">
<style type="text/css">
	.st0{fill:#FFFFFF;}
</style>
<g>
	<path class="st0" d="M2.95,18.02c1.38,0.15,2.46,0.22,3.26,0.22c3.87,0,5.81-1.45,5.81-4.36H6.25c-0.82,0-1.58-0.28-2.29-0.84
		c-0.82-0.65-1.22-1.47-1.19-2.46l0.04-6.78h20.9v17.56h-4.8v-7.48h-2.07c0.09,5.05-3.09,7.57-9.55,7.57c-1.41,0-2.95-0.13-4.62-0.4
		L2.95,18.02z M18.92,10.23V7.02H7.57v3.21H18.92z"/>
	<path class="st0" d="M50.74,21.36h-4.53V7.46H34.37v13.73l-4.8,0.44V6.36c-0.67-0.09-1.35-0.18-2.02-0.26
		c-0.67-0.26-1.01-0.82-1.01-1.67V3.63h23.98L50.74,21.36z"/>
	<path class="st0" d="M74.92,18.11c0,1.03-0.41,1.85-1.23,2.46c-0.7,0.56-1.45,0.84-2.24,0.84H58.29c-0.79,0-1.54-0.28-2.24-0.84
		c-0.82-0.62-1.23-1.44-1.23-2.46l0.04-14.48h7.83V2.05l4.36-0.44L67,3.63h7.88L74.92,18.11z M70.08,18.19V6.84H59.61v11.35H70.08z"
		/>
	<path class="st0" d="M102.09,21.36h-4.53v-7.3c-1.35,0.35-2.96,0.53-4.84,0.53c-1.94,0-4.27-0.18-7-0.53v7.13l-4.8,0.44V6.36
		c-0.67-0.09-1.35-0.18-2.02-0.26c-0.67-0.26-1.01-0.82-1.01-1.67V3.63h7.88l-0.04,6.47c3.46,0.41,7.41,0.68,11.84,0.79V3.63h4.31
		L102.09,21.36z"/>
	<path class="st0" d="M110.94,3.81v17.56h-4.8V3.81H110.94z"/>
	<path class="st0" d="M115.78,18.02c1.38,0.15,2.46,0.22,3.26,0.22c3.87,0,5.81-1.45,5.81-4.36h-5.76c-0.82,0-1.58-0.28-2.29-0.84
		c-0.82-0.65-1.22-1.47-1.19-2.46l0.04-6.78h20.9v17.56h-4.8v-7.48h-2.07c0.09,5.05-3.1,7.57-9.55,7.57c-1.41,0-2.95-0.13-4.62-0.4
		L115.78,18.02z M131.75,10.23V7.02H120.4v3.21H131.75z"/>
</g>
</svg>
