<?xml version="1.0" encoding="utf-8"?>
<!-- Generator: Adobe Illustrator 23.0.6, SVG Export Plug-In . SVG Version: 6.00 Build 0)  -->
<svg version="1.1" id="Layer_1" xmlns="http://www.w3.org/2000/svg" xmlns:xlink="http://www.w3.org/1999/xlink" x="0px" y="0px"
	 viewBox="0 0 215.64 215.64" style="enable-background:new 0 0 215.64 215.64;" xml:space="preserve">
<style type="text/css">
	.st0{fill:#FFFFFF;}
</style>
<g>
	<path class="st0" d="M92.32,148.82c-2.37-3.99-5.64-7.18-9.27-10.04c-3.66-2.89-7.68-5.36-11.91-7.33
		c-4.79-2.23-9.83-3.91-15.1-4.48c-1.09-0.13-1.87,0.92-1.97,1.87c-0.11,1.28,0.27,2.53,0.68,3.71c0.39,1.09,0.8,2.16,1.21,3.25
		c0.84,2.22,1.72,4.41,2.67,6.6c1.81,4.16,3.84,8.25,6.25,12.1c4.59,7.33,10.64,13.86,18.25,18.09c4.02,2.23,8.35,3.74,12.89,4.37
		h0.01c0.24,0.13,0.49,0.18,0.78,0.18c0.98-0.03,2.01-0.8,1.97-1.87C98.24,166.24,97.03,156.74,92.32,148.82z"/>
	<path class="st0" d="M158.9,120.37c-11.85,2.72-22.49,8.86-31.14,17.34c-8.47,8.32-14.73,18.82-18.05,30.21
		c-1.84,6.3-1.17,13.75-0.96,20.31c0,0.01-3.84,6.66-5.6,9.69l-9.02,15.61c0,0-0.74,1.38,0.34,1.93c1.54,0.99,2.99-2.44,2.99-2.44
		c2.78-4.82,7.01-12.17,7.01-12.17l6.52-11.25c0,0,27.5-8.42,40.51-33.52c4.83-9.31,8.47-21.36,10.08-32.88
		C161.8,121.71,160.33,120.04,158.9,120.37z"/>
</g>
</svg>
