<?xml version="1.0" encoding="utf-8"?>
<!-- Generator: Adobe Illustrator 23.0.6, SVG Export Plug-In . SVG Version: 6.00 Build 0)  -->
<svg version="1.1" id="Layer_1" xmlns="http://www.w3.org/2000/svg" xmlns:xlink="http://www.w3.org/1999/xlink" x="0px" y="0px"
	 viewBox="0 0 215.64 215.64" style="enable-background:new 0 0 215.64 215.64;" xml:space="preserve">
<style type="text/css">
	.st0{fill:#FFFFFF;}
</style>
<g>
	<g>
		<path class="st0" d="M84.59,155.78l0.19,0.15c-0.04-0.08-0.08-0.16-0.12-0.24L84.59,155.78z"/>
		<path class="st0" d="M210.88,2.4l-120,154.72c0,0-5.16-5.12-5.72-5.56c-0.08-0.07-0.17-0.14-0.26-0.21l-0.02-0.02
			c-7.51-5.78-22.5,1.48-34.12,16.54c-11.63,15.07-14.85,31.41-7.34,37.2l0.02,0.02c18.62,14.37,43.07,14,54.5-0.81
			c9.45-12.24,7.1-30.56-4.5-44.67L214.37,4.6c0.79-1.02,1.43-1.88,1.23-3.06c-0.05-0.27-0.17-0.51-0.33-0.72
			c-0.48-0.63-1.32-0.96-2.09-0.77C212.5,0.23,211.99,0.86,210.88,2.4z M74.89,186.51c-11.29,14.63-23.76,19.1-28.97,15.12l0,0
			c-4.75-4.39-3.66-16.78,7.64-31.43c11.31-14.65,24.57-19.47,29.77-14.79c0,0-1.54-1.86,0,0
			C90.27,163.52,84.64,173.88,74.89,186.51z"/>
	</g>
</g>
</svg>
