<?xml version="1.0" encoding="utf-8"?>
<!-- Generator: Adobe Illustrator 23.0.6, SVG Export Plug-In . SVG Version: 6.00 Build 0)  -->
<svg version="1.1" id="Layer_1" xmlns="http://www.w3.org/2000/svg" xmlns:xlink="http://www.w3.org/1999/xlink" x="0px" y="0px"
	 viewBox="0 0 215.64 215.64" style="enable-background:new 0 0 215.64 215.64;" xml:space="preserve">
<style type="text/css">
	.st0{fill:#FFFFFF;}
</style>
<g>
	<g>
		<path class="st0" d="M107.82,137.19c-25.05,0-44.67,9.78-44.67,22.25v0.05c0,30.97,20.03,56.15,44.67,56.15
			c24.52,0,44.48-24.95,44.67-55.71c0.01-0.14,0.01-0.28,0.01-0.43v-0.05C152.49,146.98,132.87,137.19,107.82,137.19z
			 M148.57,159.49c-0.05,8.61-16.41,17.84-40.74,17.84s-40.69-9.22-40.73-17.84v-0.05c0-8.64,16.37-17.89,40.73-17.89
			s40.74,9.24,40.74,17.89V159.49z"/>
	</g>
</g>
</svg>
