<?xml version="1.0" encoding="utf-8"?>
<!-- Generator: Adobe Illustrator 23.0.6, SVG Export Plug-In . SVG Version: 6.00 Build 0)  -->
<svg version="1.1" id="Layer_1" xmlns="http://www.w3.org/2000/svg" xmlns:xlink="http://www.w3.org/1999/xlink" x="0px" y="0px"
	 viewBox="0 0 215.64 215.64" style="enable-background:new 0 0 215.64 215.64;" xml:space="preserve">
<style type="text/css">
	.st0{fill:#FFFFFF;}
</style>
<g>
	<g>
		<g>
			<path class="st0" d="M87.26,177.46h-0.16v-0.01c0-0.16,0.01-0.32,0.04-0.48L87.26,177.46z"/>
			<path class="st0" d="M126.87,178.59c0,0.01,0,0.01,0,0.01c-0.01,0.03-0.03,0.06-0.04,0.1c-0.01,0.03-0.03,0.06-0.04,0.08
				C126.82,178.7,126.84,178.65,126.87,178.59z"/>
			<path class="st0" d="M126.9,178.55c-0.01,0.01-0.03,0.04-0.03,0.06c-0.01,0.03-0.03,0.06-0.04,0.1
				c-0.01,0.03-0.03,0.06-0.04,0.08c0.04-0.06,0.06-0.13,0.09-0.19C126.88,178.57,126.88,178.55,126.9,178.55z"/>
			<path class="st0" d="M126.9,178.55c-0.01,0.01-0.03,0.04-0.03,0.06c-0.01,0.03-0.03,0.06-0.04,0.1
				c-0.01,0.03-0.03,0.06-0.04,0.08c0.04-0.06,0.06-0.13,0.09-0.19C126.88,178.57,126.88,178.55,126.9,178.55z"/>
		</g>
	</g>
	<path class="st0" d="M141.37,118.39c-0.75-0.16-1.51,0.29-1.68,1l-13.58,55.83c-1.03-0.85-2.43-1.6-4.16-2.23l10.42-55.89
		c0.01-0.08,0.01-0.11,0.01-0.19c0-0.57-0.49-1.09-1.18-1.18c-0.76-0.1-1.49,0.34-1.61,1l-10.33,55.42
		c-1.04-0.27-2.16-0.49-3.34-0.68l4.15-56.42v-0.09c0-0.71-0.56-1.29-1.3-1.35c-0.77-0.06-1.46,0.52-1.51,1.24l-4.11,56.23
		c-1.38-0.15-2.81-0.24-4.3-0.27v-56.62c0-0.65-0.62-1.19-1.39-1.19c-0.76,0-1.39,0.53-1.39,1.19v56.65
		c-1.49,0.04-2.94,0.15-4.3,0.29l-4.11-56.27c-0.06-0.75-0.73-1.3-1.51-1.24c-0.77,0.06-1.37,0.68-1.3,1.43l4.13,56.47
		c-0.75,0.13-1.47,0.28-2.15,0.44l-10.3-55.22c-0.13-0.65-0.84-1.09-1.61-1c-0.76,0.1-1.29,0.72-1.18,1.37l10.37,55.59
		c-1.86,0.62-3.42,1.37-4.57,2.22l-13.56-55.52c-0.16-0.62-0.73-1.04-1.38-1.04c-0.1,0-0.2,0.01-0.3,0.03
		c-0.75,0.16-1.22,0.87-1.05,1.6l14.05,58.42c0.19,23.44-4.86,37.24,20.41,37.24c22.8,0,19.72-14.67,20.22-36.62
		c0.13-0.15,14.52-59.03,14.52-59.03C142.6,119.28,142.15,118.56,141.37,118.39z"/>
</g>
</svg>
