<?xml version="1.0" encoding="utf-8"?>
<!-- Generator: Adobe Illustrator 23.0.6, SVG Export Plug-In . SVG Version: 6.00 Build 0)  -->
<svg version="1.1" id="Layer_1" xmlns="http://www.w3.org/2000/svg" xmlns:xlink="http://www.w3.org/1999/xlink" x="0px" y="0px"
	 viewBox="0 0 422 422" style="enable-background:new 0 0 422 422;" xml:space="preserve">
<style type="text/css">
	.st0{fill:#FF0000;}
	.st1{fill:#94C437;}
	.st2{fill:#FFFFFF;}
</style>
<circle class="st0" cx="211" cy="211" r="147"/>
<g>
	<path class="st1" d="M27.89,69.7c5.29-7,9.48-14.79,12.59-23.37H28.31V41.6h13.29V30.61c-3.62,0.56-7.28,1.07-10.99,1.53
		c-0.42-1.53-0.93-3.13-1.53-4.8c9.65-1.07,18.99-2.64,28.03-4.73l1.6,4.87c-3.85,0.79-7.79,1.53-11.83,2.23v11.9h13.01v4.73H46.88
		v8.97l2.5-2.5c3.66,3.15,7.26,6.49,10.78,10.02l-3.97,4.03c-2.78-3.2-5.89-6.47-9.32-9.81v32.35h-5.29V56
		c-2.74,6.86-6.42,13.43-11.06,19.69C29.79,73.88,28.91,71.88,27.89,69.7z M63.36,29.01h30.75v58.08h-5.56v-6.75H68.93v6.75h-5.56
		V29.01z M88.55,34.16H68.93v41.18h19.62V34.16z"/>
</g>
<g>
	<g>
		<path class="st1" d="M334.67,64.92l4.59,2.16c-2.5,5.24-5.29,10.13-8.35,14.68c-1.58-1.3-2.94-2.25-4.1-2.85
			C329.78,75.01,332.4,70.35,334.67,64.92z M328.13,55.18h13.43V35.57h5.22v7.44h12.38v4.59h-12.38v7.58h15.44v4.73h-34.08V55.18z
			 M330.22,28.68h30.75c-1.25-2.32-2.69-4.57-4.31-6.75l4.52-2.5c1.95,2.74,3.57,5.15,4.87,7.23l-3.76,2.02h29.35v10.36h-5.29v-5.5
			h-50.85v6.61h-5.29V28.68z M343.71,61.58h5.22v17.6c0,3.01-0.56,5.1-1.67,6.26c-1.02,1.16-3.01,1.79-5.98,1.88
			c-2.32,0.09-4.31,0.09-5.98,0c-0.28-1.72-0.65-3.41-1.11-5.08c1.58,0.14,3.41,0.21,5.5,0.21c2.69,0,4.03-1.04,4.03-3.13V61.58z
			 M352.34,67.08l3.97-2.37c2.04,2.64,4.36,5.84,6.96,9.6l-4.24,2.78C356.61,73.2,354.38,69.86,352.34,67.08z M361.38,46.56v-4.73
			h28.73v4.38c-1.44,9.83-4.92,18.34-10.43,25.53c4.08,4.45,9.25,8.02,15.51,10.71c-1.3,1.34-2.64,2.97-4.03,4.87
			c-5.94-3.2-10.92-7.03-14.96-11.48c-4.68,4.92-10.48,9.16-17.39,12.73c-1.39-1.85-2.64-3.39-3.76-4.59
			c7.19-3.11,13.12-7.19,17.81-12.24c-5.01-7-8.02-15.4-9.04-25.18H361.38z M384.89,46.56h-16.07c0.97,8.21,3.48,15.21,7.51,21.01
			C380.6,61.68,383.46,54.67,384.89,46.56z"/>
	</g>
</g>
<g>
	<g>
		<path class="st1" d="M325.94,367.3c3.85-5.98,6.96-12.24,9.32-18.78l4.94,1.11c-0.42,1.07-0.83,2.11-1.25,3.13h22.61
			c-0.14,12.85-0.33,23.6-0.56,32.28c-0.14,5.19-1.02,8.74-2.64,10.64c-1.48,1.67-4.31,2.5-8.49,2.5c-2.6,0-5.5-0.02-8.7-0.07
			c-0.19-1.81-0.53-3.62-1.04-5.43c3.66,0.42,6.63,0.63,8.9,0.63c2.69,0,4.41-0.51,5.15-1.53c0.93-1.11,1.48-3.43,1.67-6.96
			c0.28-6.77,0.46-15.88,0.56-27.34h-19.48c-1.07,2.32-2.2,4.59-3.41,6.82h16.9v21.36h-13.22v3.96h-4.59v-23.65
			c-0.83,1.44-1.67,2.85-2.5,4.24C328.12,368.78,326.73,367.81,325.94,367.3z M352.37,331.48h4.87v6.33h8.9v4.73h-8.9v6.05h-4.87
			v-6.05h-10.29v5.01h-4.87v-5.01h-10.29v-4.73h10.29v-6.33h4.87v6.33h10.29V331.48z M345.84,381.21v-12.45h-8.63v12.45H345.84z
			 M372.41,330.5l5.36,0.9c-0.93,4.31-2.04,8.35-3.34,12.1h20.59v4.73h-4.66c-0.65,13.87-3.43,24.76-8.35,32.69
			c3.71,4.96,8.39,8.93,14.05,11.9c-1.44,2.04-2.64,3.87-3.62,5.5c-5.52-3.62-10.13-7.84-13.84-12.66
			c-3.99,4.78-9.18,9.32-15.58,13.63c-1.76-2.32-2.99-3.76-3.69-4.31c6.68-4.27,12.03-8.95,16.07-14.05
			c-3.9-6.54-6.42-14.05-7.58-22.54c-0.79,1.39-1.62,2.74-2.5,4.03c-1.39-2.37-2.5-4.08-3.34-5.15
			C366.52,350.6,370,341.68,372.41,330.5z M371.64,350.74c0.93,9.88,3.32,18.27,7.17,25.18c3.66-6.77,5.8-16,6.4-27.69h-12.52
			C372.36,349.12,372.01,349.96,371.64,350.74z"/>
	</g>
</g>
<g>
	<g>
		<path class="st1" d="M26.29,353.1l3.55-3.96c4.31,2.92,8.32,5.91,12.03,8.97c-1.72,1.9-3.08,3.39-4.1,4.45
			C33.55,358.8,29.72,355.65,26.29,353.1z M28.58,396.02c2.78-8.63,5.17-17.6,7.17-26.92c2.04,0.88,3.92,1.6,5.63,2.16
			c-2.23,8.63-4.45,17.51-6.68,26.64L28.58,396.02z M29,334.94l3.62-3.69c3.06,2.32,7.05,5.59,11.96,9.81
			c-1.58,1.53-2.97,2.9-4.17,4.1C35.63,340.67,31.83,337.26,29,334.94z M44.51,354.14H67.4v-4.73H49.17v-4.38H67.4v-4.73H46.81
			v-4.38H67.4v-6.26h5.36v6.26h21.7v4.38h-21.7v4.73h19.83v4.38H72.76v4.73h22.96v4.38h-51.2V354.14z M54.74,398.03h-5.29v-35.27
			h41.11v27.34c0,4.92-2.48,7.37-7.44,7.37H71.57c-0.23-1.48-0.58-3.27-1.04-5.36c4.31,0.28,7.81,0.42,10.5,0.42
			c2.83,0,4.24-1.21,4.24-3.62v-3.48H54.74V398.03z M85.28,367.22H54.74v4.8h30.54V367.22z M54.74,381.13h30.54v-4.8H54.74V381.13z"
			/>
	</g>
</g>
<g>
	<g>
		<path class="st2" d="M134.27,203.29l-5.03-0.28v-18.66h15.56v-1.85l4.57-0.46v5.68h-15.1V203.29z"/>
		<path class="st2" d="M174.57,199.51c0,1.08-0.43,1.94-1.29,2.59c-0.74,0.59-1.52,0.88-2.36,0.88h-13.81
			c-0.83,0-1.62-0.29-2.36-0.88c-0.86-0.65-1.29-1.51-1.29-2.59l0.05-15.2h8.22v-1.66l4.57-0.46l-0.05,2.12h8.27L174.57,199.51z
			 M169.49,199.6v-11.92H158.5v11.92H169.49z"/>
		<path class="st2" d="M179.14,202.97c0-5.57,2.02-10.58,6.05-15.01c1.66-1.88,3.66-3.56,6-5.03c2.22,1.57,4.11,3.31,5.68,5.22
			c3.82,4.56,5.73,9.51,5.73,14.87h-5.13c0.03-5.48-2.06-10.33-6.28-14.55c-4.56,4.19-6.84,9.02-6.84,14.5H179.14z"/>
		<path class="st2" d="M228.1,199.51c0,1.08-0.43,1.94-1.29,2.59c-0.74,0.59-1.52,0.88-2.36,0.88h-13.81
			c-0.83,0-1.62-0.29-2.36-0.88c-0.86-0.65-1.29-1.51-1.29-2.59l0.05-15.2h8.22v-1.66l4.57-0.46l-0.05,2.12h8.27L228.1,199.51z
			 M223.02,199.6v-11.92h-10.99v11.92H223.02z"/>
		<path class="st2" d="M254.73,191.61c0.03,0.89-0.28,1.66-0.92,2.31c0.06,0.59,0.09,1.14,0.09,1.66c0,6.1-3.39,9.14-10.16,9.14
			c-2.99,0-6.65-0.6-10.99-1.8V184.5h21.94L254.73,191.61z M249.69,191.24v-3.37h-11.92v3.37H249.69z M248.49,195.07h-10.72v5.5
			c1.82,0.22,3.34,0.32,4.57,0.32c4.19,0,6.28-1.46,6.28-4.39C248.63,196.07,248.58,195.6,248.49,195.07z"/>
		<path class="st2" d="M283.48,202.92h-4.76v-7.67c-1.42,0.37-3.11,0.55-5.08,0.55c-2.03,0-4.48-0.19-7.34-0.55v7.48l-5.03,0.46
			v-16.03c-0.71-0.09-1.42-0.19-2.12-0.28c-0.71-0.28-1.06-0.86-1.06-1.75v-0.83h8.27l-0.05,6.79c3.63,0.43,7.77,0.71,12.42,0.83
			v-7.62h4.53L283.48,202.92z"/>
		<path class="st2" d="M292.99,184.5v18.43h-5.03V184.5H292.99z"/>
		<path class="st2" d="M122.58,236.67h-4.76v-14.59H105.4v14.41l-5.03,0.46v-16.03c-0.71-0.09-1.42-0.19-2.12-0.28
			c-0.71-0.28-1.06-0.86-1.06-1.75v-0.83h25.17L122.58,236.67z"/>
		<path class="st2" d="M149.04,225.36c0.03,1.05-0.39,1.91-1.25,2.59c-0.74,0.59-1.54,0.88-2.4,0.88h-13.3v7.85h-5.03v-18.43H149
			L149.04,225.36z M144.01,224.99v-3.37h-11.92v3.37H144.01z"/>
		<path class="st2" d="M151.4,236.67c0.15,0.03,0.48,0.12,0.97,0.28c0.09,0.03,0.35,0,0.79-0.09v-18.8h4.53v17.18
			c4.46-5.23,8.41-10.96,11.82-17.18h8.78v0.83c0,0.89-0.35,1.48-1.06,1.75c-0.71,0.09-1.42,0.18-2.12,0.28v16.03l-5.03-0.46v-11.36
			c-3.51,5.63-6.51,9.55-9.01,11.73c-2.22,1.94-4.53,2.91-6.93,2.91c-0.86,0-1.85-0.11-2.96-0.32L151.4,236.67z"/>
		<path class="st2" d="M206.31,236.67h-4.76v-7.67c-1.42,0.37-3.11,0.55-5.08,0.55c-2.03,0-4.48-0.19-7.34-0.55v7.48l-5.03,0.46
			v-16.03c-0.71-0.09-1.42-0.19-2.12-0.28c-0.71-0.28-1.06-0.86-1.06-1.75v-0.83h8.27l-0.05,6.79c3.63,0.43,7.77,0.71,12.42,0.83
			v-7.62h4.53L206.31,236.67z"/>
		<path class="st2" d="M231.35,236.72h-18.7v-15.75h-3.19v-0.83c0-0.89,0.35-1.48,1.06-1.75c0.71-0.09,1.42-0.18,2.12-0.28h5.03
			v14.59h12.42v-14.59h4.76v14.78h1.39v7.07h-4.9V236.72z"/>
		<path class="st2" d="M239.32,236.67c0.15,0.03,0.48,0.12,0.97,0.28c0.09,0.03,0.35,0,0.79-0.09v-18.8h4.53v17.18
			c4.46-5.23,8.41-10.96,11.82-17.18h8.78v0.83c0,0.89-0.35,1.48-1.06,1.75c-0.71,0.09-1.42,0.18-2.12,0.28v16.03l-5.03-0.46v-11.36
			c-3.51,5.63-6.51,9.55-9.01,11.73c-2.22,1.94-4.53,2.91-6.93,2.91c-0.86,0-1.85-0.11-2.96-0.32L239.32,236.67z"/>
		<path class="st2" d="M294.22,236.67h-4.76v-14.59h-12.42v14.41l-5.03,0.46v-16.03c-0.71-0.09-1.42-0.19-2.12-0.28
			c-0.71-0.28-1.06-0.86-1.06-1.75v-0.83h25.17L294.22,236.67z"/>
		<path class="st2" d="M297.94,236.67c0.15,0.03,0.48,0.12,0.97,0.28c0.09,0.03,0.35,0,0.78-0.09v-18.8h4.53v17.18
			c4.46-5.23,8.41-10.96,11.82-17.18h8.78v0.83c0,0.89-0.35,1.48-1.06,1.75c-0.71,0.09-1.42,0.18-2.12,0.28v16.03l-5.03-0.46v-11.36
			c-3.51,5.63-6.51,9.55-9.01,11.73c-2.22,1.94-4.53,2.91-6.93,2.91c-0.86,0-1.85-0.11-2.96-0.32L297.94,236.67z"/>
	</g>
</g>
</svg>
