<?xml version="1.0" encoding="utf-8"?>
<!-- Generator: Adobe Illustrator 23.0.6, SVG Export Plug-In . SVG Version: 6.00 Build 0)  -->
<svg version="1.1" id="Layer_1" xmlns="http://www.w3.org/2000/svg" xmlns:xlink="http://www.w3.org/1999/xlink" x="0px" y="0px"
	 viewBox="0 0 133.1 23" style="enable-background:new 0 0 133.1 23;" xml:space="preserve">
<style type="text/css">
	.st0{fill:#FFFFFF;}
</style>
<g>
	<path class="st0" d="M24.07,3.12l-6.96,10.43L10.69,2.9L0.04,2.94v0.8c0,0.87,0.34,1.43,1.03,1.7C1.75,5.53,2.43,5.61,3.12,5.7
		v15.47l4.85-0.44L8.02,7.26l9.14,14.85L26.74,7v13.9h4.81L31.6,3.12H24.07z"/>
	<path class="st0" d="M54.37,3.72c-1.92-1.44-4.58-2.16-8-2.16c-2.7,0-5.72,0.46-9.05,1.38l1.43,3.3c3.41-0.54,5.97-0.8,7.67-0.8
		c3.95,0,5.92,1.47,5.92,4.41H36.06l-0.04,7.62c0,1.01,0.41,1.84,1.25,2.5c0.71,0.56,1.47,0.84,2.27,0.84l17.7,0.09V9.85
		C57.24,7.2,56.28,5.16,54.37,3.72z M52.38,17.11H40.92V13.1h11.46V17.11z"/>
	<path class="st0" d="M78.33,1.34v1.78H61.52l0.18,3.21h7.58V20.9h4.9V6.33h8.56V0.89L78.33,1.34z"/>
	<path class="st0" d="M103.49,1.34v1.78h-16.8l0.18,3.21h7.58V20.9h4.9V6.33h8.56V0.89L103.49,1.34z"/>
	<path class="st0" d="M111.88,3.12l-0.04,6.86c-0.03,1.01,0.37,1.85,1.2,2.5c0.71,0.56,1.49,0.85,2.32,0.85h5.84
		c0,2.94-1.96,4.41-5.89,4.41c-0.8,0-1.9-0.07-3.29-0.22l-0.27,3.07c1.69,0.27,3.25,0.4,4.68,0.4c6.54,0,9.76-2.55,9.67-7.66h2.1
		v7.57h4.85V3.12H111.88z M128.2,9.63h-11.5V6.37h11.5V9.63z"/>
</g>
</svg>
