<?xml version="1.0" encoding="utf-8"?>
<!-- Generator: Adobe Illustrator 23.0.6, SVG Export Plug-In . SVG Version: 6.00 Build 0)  -->
<svg version="1.1" id="Layer_1" xmlns="http://www.w3.org/2000/svg" xmlns:xlink="http://www.w3.org/1999/xlink" x="0px" y="0px"
	 viewBox="0 0 560 422" style="enable-background:new 0 0 560 422;" xml:space="preserve">
<style type="text/css">
	.st0{fill:#FFFFFF;}
	.st1{fill:#FF0000;}
</style>
<g>
	<g>
		<path class="st0" d="M165.35,209.56c-5.11-28.68-25.31-52.12-52.1-61.84c-3.89-0.08-7.72-0.37-11.51-0.86
			c-4.68-0.59-9.27-1.47-13.75-2.63c-1.56-0.4-3.12-0.84-4.65-1.31c-43.68,1.2-78.71,36.98-78.71,80.95
			c0,44.72,36.26,80.98,80.99,80.98c4.62,0,9.15-0.39,13.55-1.14c1.06-0.16,2.11-0.36,3.15-0.58c35.58-7.45,62.59-38.29,64.21-75.69
			c0.05-1.19,0.08-2.37,0.08-3.57C166.61,218.99,166.18,214.2,165.35,209.56z M87.46,251.18c-0.49,0.04-0.98,0.05-1.48,0.05
			c-15.09,0-27.32-12.23-27.32-27.32c0-15.09,12.23-27.32,27.32-27.32c0.54,0,1.08,0.02,1.62,0.06c14.33,0.82,25.7,12.71,25.7,27.26
			C113.3,238.5,101.86,250.42,87.46,251.18z"/>
		<path class="st0" d="M545.97,98.92l-3.73-1.58c-3.51,5.9-7.56,11.44-12.1,16.58c-17.89,20.32-43.1,34.06-71.5,37.09
			c-3.95,0.43-7.94,0.65-11.99,0.65c-29.2,0-55.78-11.26-75.63-29.68l-221.41,20.56c-10.64,3.39-21.97,5.22-33.74,5.22
			c-0.88,0-1.75-0.01-2.62-0.04c-3.89-0.08-7.72-0.37-11.51-0.86c-4.68-0.59-9.27-1.47-13.75-2.63
			c-36.67,9.94-62.5,44.59-59.92,83.96c2.6,39.62,33.1,70.77,71.1,75.52c1.18,0.16,2.37,0.28,3.57,0.37
			c3.92,0.32,7.92,0.35,11.96,0.09c4.08-0.27,8.06-0.83,11.93-1.67l93.94,4.69l41,2.04l28.98,1.45l5.29,0.26l9.6,0.48l5.14,0.25
			l29.36,1.47l5.15,0.26l53.62,2.67c14.33,7.1,30.7,9.89,46.97,7.52c6.91-1,13.79-2.93,20.51-5.85
			c16.28-7.09,29.03-18.96,37.28-33.24c2.33-4.04,4.32-8.27,5.91-12.63l3.31-11.75l44.37-156.5L545.97,98.92z M85.98,251.23
			c-15.09,0-27.32-12.23-27.32-27.32c0-15.09,12.23-27.32,27.32-27.32c0.54,0,1.08,0.02,1.62,0.06c14.33,0.82,25.7,12.71,25.7,27.26
			c0,14.59-11.44,26.51-25.84,27.27C86.97,251.22,86.48,251.23,85.98,251.23z"/>
		<path class="st1" d="M473,224.35c0,36.27-9.97,70.22-27.32,99.24c-33.81,56.57-95.67,94.45-166.37,94.45
			c-78.55,0-146.18-46.76-176.57-113.96c-0.14-0.31-0.29-0.63-0.42-0.95c-7.25-16.26-12.33-33.7-14.86-51.95
			c14.4-0.76,25.84-12.68,25.84-27.27c0-14.55-11.37-26.44-25.7-27.26c0.03-0.3,0.08-0.59,0.12-0.88
			c2.53-17.14,7.31-33.54,14.02-48.91c3.79,0.49,7.62,0.78,11.51,0.86c0.87,0.03,1.74,0.04,2.62,0.04c11.77,0,23.1-1.83,33.74-5.22
			c44.55-14.16,76.94-55.63,77.48-104.75c8.27-2.32,16.77-4.09,25.45-5.29h0.01c8.75-1.21,17.67-1.84,26.76-1.84
			c9.42,0,18.68,0.68,27.73,1.98c9.72,1.39,19.2,3.5,28.4,6.28c-0.02,0.5-0.02,0.99-0.02,1.5c0,32.23,13.71,61.26,35.6,81.56
			c19.85,18.42,46.43,29.68,75.63,29.68c4.05,0,8.04-0.22,11.99-0.65C467.9,173.63,473,198.4,473,224.35z"/>
		<circle class="st1" cx="279.8" cy="30.66" r="27.32"/>
	</g>
	<g>
		<g>
			<path class="st0" d="M258.76,311.46l-3.55,3.41c6.12,5.1,12.01,10.41,17.67,15.93l4.24-3.97
				C271.33,321.4,265.21,316.28,258.76,311.46z M248.05,304.29v-8.9h-5.15v8.9h-22.33v4.94h22.33V323c0,2.93-1.41,4.39-4.24,4.39
				c-2.41,0-5.24-0.14-8.49-0.42c0.42,2.09,0.74,3.96,0.97,5.63h9.05c5.24,0,7.86-2.71,7.86-8.13v-15.24h21.21v-4.94H248.05z
				 M230.45,311.32c-5.1,5.89-11.13,11.2-18.09,15.93c1.44,1.25,2.74,2.52,3.9,3.82c5.66-4.03,11.94-9.57,18.85-16.62L230.45,311.32
				z M260.85,272.71v-7.51h-5.15v7.51h-20.87v-7.51h-5.15v7.51h-18.22v4.94h18.22v5.98h5.15v-5.98h20.87v5.98h5.15v-5.98h18.08
				v-4.94H260.85z M248.6,282.31l1.53-1.67h-7.37c-7.23,8.35-17.97,15.33-32.21,20.94c0.84,1.02,1.88,2.67,3.13,4.94
				c14.15-6.22,24.65-13.15,31.52-20.8c6.77,7.84,17.06,14.4,30.88,19.69c1.53-2.55,2.76-4.41,3.69-5.57
				C265.76,295.67,255.37,289.82,248.6,282.31z"/>
			<path class="st0" d="M350.16,278.55v-4.59h-14.78c2.07-2.45,3.84-4.63,5.32-6.54l-5.28-2.71c-2.04,3.39-4.07,6.47-6.09,9.25
				h-12.8l3.17-2.36c-1.72-2.13-3.78-4.5-6.19-7.1l-4.04,2.99c2.3,2.76,3.99,4.92,5.08,6.47h-13.08v4.59h19.65l-1.35,6.06h-14.33
				v37.91h5.14v-2.58h29.36v2.58h5.15v-37.91h-20.11l1.78-6.06H350.16z M310.58,299.15h29.36v6.19h-29.36V299.15z M339.94,315.7
				h-29.36v-6.26h29.36V315.7z M339.94,288.85v6.19h-29.36v-6.19H339.94z M288.6,266.59l-4.24,3.06c2.78,3.43,5.73,7.56,8.83,12.38
				l4.87-3.34C294.96,274.34,291.8,270.3,288.6,266.59z M327.56,326.97l-16.84-0.21c-6.56-0.21-11.52-2.4-14.88-6.57v-30.44h-13.36
				v5.08h8.07V319c-2.83,2.44-5.75,5-8.76,7.69l2.99,5.91c4.08-4.87,6.79-7.83,8.14-8.9c3.75,5.29,9.52,7.95,17.32,8l15.44,0.28
				l23.16-0.21c0.74-1.76,1.51-3.55,2.3-5.36L327.56,326.97z"/>
		</g>
	</g>
	<g>
		<path class="st0" d="M213.72,157.23v13.3H197.3v-13.3h-6.94v13.8c-0.04,1.45,0.53,2.63,1.72,3.57c1.02,0.8,2.12,1.21,3.31,1.21
			h18.33v6.87h6.93v-25.45H213.72z"/>
		<path class="st0" d="M252.89,158.15c-2.74-2.06-6.55-3.09-11.42-3.09c-3.87,0-8.17,0.66-12.92,1.98l2.03,4.7
			c4.88-0.76,8.53-1.14,10.95-1.14c5.64,0,8.46,2.1,8.46,6.3h-23.22l-0.07,10.88c0,1.44,0.6,2.63,1.78,3.56
			c1.02,0.81,2.1,1.21,3.25,1.21l25.26,0.13V166.9C256.99,163.12,255.62,160.21,252.89,158.15z M250.06,177.27H233.7v-5.73h16.36
			V177.27z"/>
		<path class="st0" d="M275.82,155.38v4.01h6.3v-4.01H275.82z M287.4,157.04c-4.71,8.56-10.14,16.45-16.29,23.67v-23.67h-6.24v25.89
			c-0.59,0.13-0.95,0.17-1.08,0.13c-0.67-0.21-1.12-0.34-1.33-0.38l-0.32,3.82c1.53,0.29,2.88,0.44,4.07,0.44
			c3.31,0,6.49-1.33,9.55-4.01c3.43-3.01,7.57-8.4,12.4-16.16v15.65l6.94,0.64v-22.08c0.97-0.13,1.95-0.25,2.93-0.38
			c0.97-0.38,1.46-1.19,1.46-2.42v-1.14H287.4z"/>
		<path class="st0" d="M338.11,182.68l-0.32-25.64h-6.24v10.49c-6.4-0.16-12.11-0.55-17.11-1.14l0.06-9.35h-11.39v1.14
			c0,1.23,0.49,2.04,1.46,2.42c0.98,0.13,1.96,0.25,2.93,0.38v22.08l6.94-0.64v-10.3c3.94,0.5,7.31,0.76,10.11,0.76
			c2.72,0,5.05-0.26,7-0.76v10.56H338.11z"/>
		<path class="st0" d="M370.41,158.15c-2.74-2.06-6.55-3.09-11.43-3.09c-3.86,0-8.16,0.66-12.91,1.98l2.03,4.7
			c4.88-0.76,8.53-1.14,10.95-1.14c5.64,0,8.46,2.1,8.46,6.3h-23.22l-0.07,10.88c0,1.44,0.6,2.63,1.78,3.56
			c1.02,0.81,2.1,1.21,3.25,1.21l25.26,0.13V166.9C374.51,163.12,373.14,160.21,370.41,158.15z M367.57,177.27h-16.35v-5.73h16.35
			V177.27z"/>
		<path class="st0" d="M158.13,223.96V203.6h-6.55v20.11h-17.12V203.6h-6.94c-0.97,0.13-1.95,0.25-2.92,0.38
			c-0.98,0.38-1.47,1.19-1.47,2.42v1.14h4.39v21.7h25.77v4.46h6.75v-9.74H158.13z"/>
		<path class="st0" d="M188.57,218.3c1.15,0,2.23-0.38,3.25-1.15c1.18-0.93,1.78-2.14,1.78-3.63v-0.5h-21.32v-4.59l20.81-0.06v-7.76
			l-6.3,0.63v2.55h-21.44v20.62c0,1.21,0.39,2.22,1.18,3.03c0.18,0.19,0.38,0.36,0.6,0.53c1.02,0.81,2.1,1.21,3.24,1.21h21.32
			l1.4-4.65h-20.81v-6.23H188.57z"/>
		<path class="st0" d="M229.99,203.79h-30.22v25.39h6.93v-10.82h18.33c1.19,0,2.29-0.4,3.31-1.21c1.19-0.93,1.76-2.12,1.72-3.56
			L229.99,203.79z M223.12,213.08H206.7v-4.65h16.42V213.08z"/>
		<path class="st0" d="M258.97,218.3c1.15,0,2.23-0.38,3.25-1.15c1.18-0.93,1.78-2.14,1.78-3.63v-0.5h-21.32v-4.59l20.81-0.06v-7.76
			l-6.3,0.63v2.55h-21.45v20.62c0,1.48,0.6,2.67,1.79,3.56c1.01,0.81,2.1,1.21,3.24,1.21h21.32l1.4-4.65h-20.81v-6.23H258.97z"/>
		<path class="st0" d="M302.21,203.79l-9.92,14.89l-9.17-15.21l-15.2,0.06v1.15c0,1.23,0.48,2.04,1.46,2.42
			c0.98,0.13,1.95,0.25,2.93,0.38v22.08l6.93-0.64l0.07-19.21l13.04,21.19l13.68-21.57v19.85h6.87l0.07-25.39H302.21z"/>
		<path class="st0" d="M348.41,203.53h-11.39l0.07-2.92l-6.3,0.63v2.29h-11.33l-0.06,20.94c0,1.48,0.59,2.67,1.78,3.56
			c1.02,0.81,2.1,1.21,3.25,1.21h19.02c1.15,0,2.23-0.4,3.25-1.21c1.18-0.89,1.78-2.08,1.78-3.56L348.41,203.53z M341.48,224.6
			h-15.15v-16.42h15.15V224.6z"/>
		<path class="st0" d="M388.15,229.18l-0.32-25.65h-6.23v10.5c-6.41-0.16-12.11-0.55-17.12-1.14l0.06-9.36h-11.39v1.15
			c0,1.23,0.49,2.04,1.47,2.42c0.97,0.13,1.95,0.25,2.93,0.38v22.08l6.93-0.64v-10.3c3.95,0.5,7.32,0.76,10.12,0.76
			c2.71,0,5.05-0.26,7-0.76v10.56H388.15z"/>
		<path class="st0" d="M394.32,203.79v25.39h6.94v-25.39H394.32z"/>
		<path class="st0" d="M408.33,203.79l-0.06,9.8c-0.04,1.44,0.53,2.63,1.72,3.56c1.02,0.81,2.12,1.21,3.31,1.21h8.33
			c0,4.2-2.8,6.3-8.4,6.3c-1.14,0-2.71-0.1-4.7-0.32l-0.39,4.39c2.42,0.38,4.65,0.58,6.68,0.58c9.34,0,13.94-3.65,13.81-10.95h2.99
			v10.82h6.94v-25.39H408.33z M431.62,213.08h-16.41v-4.65h16.41V213.08z"/>
	</g>
</g>
</svg>
